<?xml version="1.0" encoding="UTF-8" standalone="no"?>
<!DOCTYPE svg PUBLIC "-//W3C//DTD SVG 1.1//EN"
 "http://www.w3.org/Graphics/SVG/1.1/DTD/svg11.dtd">
<!-- Generated by graphviz version 2.44.1 (20200629.0846)
 -->
<!-- Title: dependencies Pages: 1 -->
<svg width="810pt" height="287pt"
 viewBox="0.00 0.00 810.00 287.00" xmlns="http://www.w3.org/2000/svg" xmlns:xlink="http://www.w3.org/1999/xlink">
<g id="graph0" class="graph" transform="scale(1 1) rotate(0) translate(4 283)">
<title>dependencies</title>
<polygon fill="white" stroke="transparent" points="-4,4 -4,-283 806,-283 806,4 -4,4"/>
<text text-anchor="start" x="380.01" y="-42.4" font-family="sans-serif" font-weight="bold" font-size="14.00">Legend</text>
<polygon fill="#ffffb3" stroke="transparent" points="167,-10 167,-30 187,-30 187,-10 167,-10"/>
<text text-anchor="start" x="190.63" y="-15.4" font-family="sans-serif" font-size="14.00"> &#160;Declarations</text>
<polygon fill="#8dd3c7" stroke="transparent" points="280,-10 280,-30 300,-30 300,-10 280,-10"/>
<text text-anchor="start" x="303.73" y="-15.4" font-family="sans-serif" font-size="14.00"> &#160;Module</text>
<polygon fill="#80b1d3" stroke="transparent" points="366,-10 366,-30 386,-30 386,-10 366,-10"/>
<text text-anchor="start" x="389.78" y="-15.4" font-family="sans-serif" font-size="14.00"> &#160;Bootstrap</text>
<polygon fill="#fdb462" stroke="transparent" points="463,-10 463,-30 483,-30 483,-10 463,-10"/>
<text text-anchor="start" x="486.67" y="-15.4" font-family="sans-serif" font-size="14.00"> &#160;Providers</text>
<polygon fill="#fb8072" stroke="transparent" points="559,-10 559,-30 579,-30 579,-10 559,-10"/>
<text text-anchor="start" x="582.73" y="-15.4" font-family="sans-serif" font-size="14.00"> &#160;Exports</text>
<g id="clust1" class="cluster">
<title>cluster_AccountsModule</title>
<polygon fill="none" stroke="black" stroke-dasharray="1,5" points="8,-70 8,-206 355,-206 355,-70 8,-70"/>
</g>
<g id="clust6" class="cluster">
<title>cluster_AccountsModule_providers</title>
<polygon fill="none" stroke="black" points="16,-78 16,-130 347,-130 347,-78 16,-78"/>
</g>
<g id="clust7" class="cluster">
<title>cluster_AppModule</title>
<polygon fill="none" stroke="black" stroke-dasharray="1,5" points="363,-146 363,-271 607,-271 607,-146 363,-146"/>
</g>
<g id="clust9" class="cluster">
<title>cluster_AppModule_imports</title>
<polygon fill="none" stroke="black" points="371,-154 371,-206 599,-206 599,-154 371,-154"/>
</g>
<g id="clust13" class="cluster">
<title>cluster_AuthModule</title>
<polygon fill="none" stroke="black" stroke-dasharray="1,5" points="363,-70 363,-138 794,-138 794,-70 363,-70"/>
</g>
<g id="clust18" class="cluster">
<title>cluster_AuthModule_providers</title>
<polygon fill="none" stroke="black" points="371,-78 371,-130 786,-130 786,-78 371,-78"/>
</g>
<!-- AccountsService -->
<g id="node1" class="node">
<title>AccountsService</title>
<ellipse fill="#fdb462" stroke="black" cx="100" cy="-104" rx="76.42" ry="18"/>
<text text-anchor="middle" x="100" y="-99.8" font-family="Times,serif" font-size="14.00">AccountsService</text>
</g>
<!-- AccountsModule -->
<g id="node3" class="node">
<title>AccountsModule</title>
<polygon fill="#8dd3c7" stroke="black" points="323.42,-198 320.42,-202 299.42,-202 296.42,-198 210.58,-198 210.58,-162 323.42,-162 323.42,-198"/>
<text text-anchor="middle" x="267" y="-175.8" font-family="Times,serif" font-size="14.00">AccountsModule</text>
</g>
<!-- AccountsService&#45;&gt;AccountsModule -->
<g id="edge1" class="edge">
<title>AccountsService&#45;&gt;AccountsModule</title>
<path fill="none" stroke="black" d="M125.49,-121.25C125.49,-143.67 125.49,-180 125.49,-180 125.49,-180 200.66,-180 200.66,-180"/>
<polygon fill="black" stroke="black" points="200.66,-183.5 210.66,-180 200.66,-176.5 200.66,-183.5"/>
</g>
<!-- AuthModule -->
<g id="node4" class="node">
<title>AuthModule</title>
<polygon fill="#8dd3c7" stroke="black" points="590.55,-198 587.55,-202 566.55,-202 563.55,-198 503.45,-198 503.45,-162 590.55,-162 590.55,-198"/>
<text text-anchor="middle" x="547" y="-175.8" font-family="Times,serif" font-size="14.00">AuthModule</text>
</g>
<!-- AccountsService&#45;&gt;AuthModule -->
<g id="edge6" class="edge">
<title>AccountsService&#45;&gt;AuthModule</title>
<path fill="none" stroke="black" d="M74.51,-121.01C74.51,-133.76 74.51,-149 74.51,-149 74.51,-149 505.72,-149 505.72,-149 505.72,-149 505.72,-151.97 505.72,-151.97"/>
<polygon fill="black" stroke="black" points="502.22,-151.97 505.72,-161.97 509.22,-151.97 502.22,-151.97"/>
</g>
<!-- UploadsService -->
<g id="node2" class="node">
<title>UploadsService</title>
<ellipse fill="#fdb462" stroke="black" cx="267" cy="-104" rx="72.35" ry="18"/>
<text text-anchor="middle" x="267" y="-99.8" font-family="Times,serif" font-size="14.00">UploadsService</text>
</g>
<!-- UploadsService&#45;&gt;AccountsModule -->
<g id="edge2" class="edge">
<title>UploadsService&#45;&gt;AccountsModule</title>
<path fill="none" stroke="black" d="M267,-122.01C267,-122.01 267,-151.85 267,-151.85"/>
<polygon fill="black" stroke="black" points="263.5,-151.85 267,-161.85 270.5,-151.85 263.5,-151.85"/>
</g>
<!-- UploadsService&#45;&gt;AuthModule -->
<g id="edge10" class="edge">
<title>UploadsService&#45;&gt;AuthModule</title>
<path fill="none" stroke="black" d="M328.53,-113.43C328.53,-122.87 328.53,-136 328.53,-136 328.53,-136 508.21,-136 508.21,-136 508.21,-136 508.21,-151.85 508.21,-151.85"/>
<polygon fill="black" stroke="black" points="504.71,-151.85 508.21,-161.85 511.71,-151.85 504.71,-151.85"/>
</g>
<!-- UploadsModule -->
<g id="node5" class="node">
<title>UploadsModule</title>
<polygon fill="#8dd3c7" stroke="black" points="485.21,-198 482.21,-202 461.21,-202 458.21,-198 378.79,-198 378.79,-162 485.21,-162 485.21,-198"/>
<text text-anchor="middle" x="432" y="-175.8" font-family="Times,serif" font-size="14.00">UploadsModule</text>
</g>
<!-- UploadsService&#45;&gt;UploadsModule -->
<g id="edge11" class="edge">
<title>UploadsService&#45;&gt;UploadsModule</title>
<path fill="none" stroke="black" d="M333.85,-111.01C333.85,-129.83 333.85,-180 333.85,-180 333.85,-180 368.62,-180 368.62,-180"/>
<polygon fill="black" stroke="black" points="368.62,-183.5 378.62,-180 368.62,-176.5 368.62,-183.5"/>
</g>
<!-- AppModule -->
<g id="node6" class="node">
<title>AppModule</title>
<polygon fill="#8dd3c7" stroke="black" points="473.66,-263 470.66,-267 449.66,-267 446.66,-263 390.34,-263 390.34,-227 473.66,-227 473.66,-263"/>
<text text-anchor="middle" x="432" y="-240.8" font-family="Times,serif" font-size="14.00">AppModule</text>
</g>
<!-- AccountsModule&#45;&gt;AppModule -->
<g id="edge3" class="edge">
<title>AccountsModule&#45;&gt;AppModule</title>
<path fill="none" stroke="black" d="M267,-198.11C267,-217.34 267,-245 267,-245 267,-245 379.94,-245 379.94,-245"/>
<polygon fill="black" stroke="black" points="379.94,-248.5 389.94,-245 379.94,-241.5 379.94,-248.5"/>
</g>
<!-- AuthModule&#45;&gt;AppModule -->
<g id="edge4" class="edge">
<title>AuthModule&#45;&gt;AppModule</title>
<path fill="none" stroke="black" d="M547,-198.11C547,-217.34 547,-245 547,-245 547,-245 483.84,-245 483.84,-245"/>
<polygon fill="black" stroke="black" points="483.84,-241.5 473.84,-245 483.84,-248.5 483.84,-241.5"/>
</g>
<!-- UploadsModule&#45;&gt;AppModule -->
<g id="edge5" class="edge">
<title>UploadsModule&#45;&gt;AppModule</title>
<path fill="none" stroke="black" d="M432,-198.11C432,-198.11 432,-216.99 432,-216.99"/>
<polygon fill="black" stroke="black" points="428.5,-216.99 432,-226.99 435.5,-216.99 428.5,-216.99"/>
</g>
<!-- AuthService -->
<g id="node7" class="node">
<title>AuthService</title>
<ellipse fill="#fdb462" stroke="black" cx="570" cy="-104" rx="59.11" ry="18"/>
<text text-anchor="middle" x="570" y="-99.8" font-family="Times,serif" font-size="14.00">AuthService</text>
</g>
<!-- AuthService&#45;&gt;AuthModule -->
<g id="edge7" class="edge">
<title>AuthService&#45;&gt;AuthModule</title>
<path fill="none" stroke="black" d="M550.73,-121.25C550.73,-121.25 550.73,-151.76 550.73,-151.76"/>
<polygon fill="black" stroke="black" points="547.23,-151.76 550.73,-161.76 554.23,-151.76 547.23,-151.76"/>
</g>
<!-- JwtStrategy -->
<g id="node8" class="node">
<title>JwtStrategy</title>
<ellipse fill="#fdb462" stroke="black" cx="436" cy="-104" rx="56.76" ry="18"/>
<text text-anchor="middle" x="436" y="-99.8" font-family="Times,serif" font-size="14.00">JwtStrategy</text>
</g>
<!-- JwtStrategy&#45;&gt;AuthModule -->
<g id="edge8" class="edge">
<title>JwtStrategy&#45;&gt;AuthModule</title>
<path fill="none" stroke="black" d="M488.87,-110.48C488.87,-128.86 488.87,-180 488.87,-180 488.87,-180 493.24,-180 493.24,-180"/>
<polygon fill="black" stroke="black" points="493.24,-183.5 503.24,-180 493.24,-176.5 493.24,-183.5"/>
</g>
<!-- LocalStrategy -->
<g id="node9" class="node">
<title>LocalStrategy</title>
<ellipse fill="#fdb462" stroke="black" cx="713" cy="-104" rx="65.41" ry="18"/>
<text text-anchor="middle" x="713" y="-99.8" font-family="Times,serif" font-size="14.00">LocalStrategy</text>
</g>
<!-- LocalStrategy&#45;&gt;AuthModule -->
<g id="edge9" class="edge">
<title>LocalStrategy&#45;&gt;AuthModule</title>
<path fill="none" stroke="black" d="M713,-122.01C713,-144.49 713,-180 713,-180 713,-180 600.61,-180 600.61,-180"/>
<polygon fill="black" stroke="black" points="600.61,-176.5 590.61,-180 600.61,-183.5 600.61,-176.5"/>
</g>
</g>
</svg>
