<?xml version="1.0" encoding="UTF-8" standalone="no"?>
<!DOCTYPE svg PUBLIC "-//W3C//DTD SVG 1.1//EN"
 "http://www.w3.org/Graphics/SVG/1.1/DTD/svg11.dtd">
<!-- Generated by graphviz version 2.44.1 (20200629.0846)
 -->
<!-- Title: dependencies Pages: 1 -->
<svg width="787pt" height="211pt"
 viewBox="0.00 0.00 787.00 211.00" xmlns="http://www.w3.org/2000/svg" xmlns:xlink="http://www.w3.org/1999/xlink">
<g id="graph0" class="graph" transform="scale(1 1) rotate(0) translate(4 207)">
<title>dependencies</title>
<polygon fill="white" stroke="transparent" points="-4,4 -4,-207 783,-207 783,4 -4,4"/>
<text text-anchor="start" x="368.51" y="-42.4" font-family="sans-serif" font-weight="bold" font-size="14.00">Legend</text>
<polygon fill="#ffffb3" stroke="transparent" points="155.5,-10 155.5,-30 175.5,-30 175.5,-10 155.5,-10"/>
<text text-anchor="start" x="179.13" y="-15.4" font-family="sans-serif" font-size="14.00"> &#160;Declarations</text>
<polygon fill="#8dd3c7" stroke="transparent" points="268.5,-10 268.5,-30 288.5,-30 288.5,-10 268.5,-10"/>
<text text-anchor="start" x="292.23" y="-15.4" font-family="sans-serif" font-size="14.00"> &#160;Module</text>
<polygon fill="#80b1d3" stroke="transparent" points="354.5,-10 354.5,-30 374.5,-30 374.5,-10 354.5,-10"/>
<text text-anchor="start" x="378.28" y="-15.4" font-family="sans-serif" font-size="14.00"> &#160;Bootstrap</text>
<polygon fill="#fdb462" stroke="transparent" points="451.5,-10 451.5,-30 471.5,-30 471.5,-10 451.5,-10"/>
<text text-anchor="start" x="475.17" y="-15.4" font-family="sans-serif" font-size="14.00"> &#160;Providers</text>
<polygon fill="#fb8072" stroke="transparent" points="547.5,-10 547.5,-30 567.5,-30 567.5,-10 547.5,-10"/>
<text text-anchor="start" x="571.23" y="-15.4" font-family="sans-serif" font-size="14.00"> &#160;Exports</text>
<g id="clust1" class="cluster">
<title>cluster_AuthModule</title>
<polygon fill="none" stroke="black" stroke-dasharray="1,5" points="8,-70 8,-195 771,-195 771,-70 8,-70"/>
</g>
<g id="clust6" class="cluster">
<title>cluster_AuthModule_providers</title>
<polygon fill="none" stroke="black" points="16,-78 16,-130 763,-130 763,-78 16,-78"/>
</g>
<!-- AccountsService -->
<g id="node1" class="node">
<title>AccountsService</title>
<ellipse fill="#fdb462" stroke="black" cx="679" cy="-104" rx="76.42" ry="18"/>
<text text-anchor="middle" x="679" y="-99.8" font-family="Times,serif" font-size="14.00">AccountsService</text>
</g>
<!-- AuthModule -->
<g id="node6" class="node">
<title>AuthModule</title>
<polygon fill="#8dd3c7" stroke="black" points="434.55,-187 431.55,-191 410.55,-191 407.55,-187 347.45,-187 347.45,-151 434.55,-151 434.55,-187"/>
<text text-anchor="middle" x="391" y="-164.8" font-family="Times,serif" font-size="14.00">AuthModule</text>
</g>
<!-- AccountsService&#45;&gt;AuthModule -->
<g id="edge1" class="edge">
<title>AccountsService&#45;&gt;AuthModule</title>
<path fill="none" stroke="black" d="M679,-122.28C679,-143.32 679,-175 679,-175 679,-175 444.74,-175 444.74,-175"/>
<polygon fill="black" stroke="black" points="444.74,-171.5 434.74,-175 444.74,-178.5 444.74,-171.5"/>
</g>
<!-- AuthService -->
<g id="node2" class="node">
<title>AuthService</title>
<ellipse fill="#fdb462" stroke="black" cx="525" cy="-104" rx="59.11" ry="18"/>
<text text-anchor="middle" x="525" y="-99.8" font-family="Times,serif" font-size="14.00">AuthService</text>
</g>
<!-- AuthService&#45;&gt;AuthModule -->
<g id="edge2" class="edge">
<title>AuthService&#45;&gt;AuthModule</title>
<path fill="none" stroke="black" d="M525,-122.02C525,-139.37 525,-163 525,-163 525,-163 444.88,-163 444.88,-163"/>
<polygon fill="black" stroke="black" points="444.88,-159.5 434.88,-163 444.88,-166.5 444.88,-159.5"/>
</g>
<!-- JwtStrategy -->
<g id="node3" class="node">
<title>JwtStrategy</title>
<ellipse fill="#fdb462" stroke="black" cx="391" cy="-104" rx="56.76" ry="18"/>
<text text-anchor="middle" x="391" y="-99.8" font-family="Times,serif" font-size="14.00">JwtStrategy</text>
</g>
<!-- JwtStrategy&#45;&gt;AuthModule -->
<g id="edge3" class="edge">
<title>JwtStrategy&#45;&gt;AuthModule</title>
<path fill="none" stroke="black" d="M391,-122.11C391,-122.11 391,-140.99 391,-140.99"/>
<polygon fill="black" stroke="black" points="387.5,-140.99 391,-150.99 394.5,-140.99 387.5,-140.99"/>
</g>
<!-- LocalStrategy -->
<g id="node4" class="node">
<title>LocalStrategy</title>
<ellipse fill="#fdb462" stroke="black" cx="251" cy="-104" rx="65.41" ry="18"/>
<text text-anchor="middle" x="251" y="-99.8" font-family="Times,serif" font-size="14.00">LocalStrategy</text>
</g>
<!-- LocalStrategy&#45;&gt;AuthModule -->
<g id="edge4" class="edge">
<title>LocalStrategy&#45;&gt;AuthModule</title>
<path fill="none" stroke="black" d="M251,-122.02C251,-139.37 251,-163 251,-163 251,-163 337.09,-163 337.09,-163"/>
<polygon fill="black" stroke="black" points="337.09,-166.5 347.09,-163 337.09,-159.5 337.09,-166.5"/>
</g>
<!-- UploadsService -->
<g id="node5" class="node">
<title>UploadsService</title>
<ellipse fill="#fdb462" stroke="black" cx="96" cy="-104" rx="72.35" ry="18"/>
<text text-anchor="middle" x="96" y="-99.8" font-family="Times,serif" font-size="14.00">UploadsService</text>
</g>
<!-- UploadsService&#45;&gt;AuthModule -->
<g id="edge5" class="edge">
<title>UploadsService&#45;&gt;AuthModule</title>
<path fill="none" stroke="black" d="M96,-122.28C96,-143.32 96,-175 96,-175 96,-175 337.15,-175 337.15,-175"/>
<polygon fill="black" stroke="black" points="337.15,-178.5 347.15,-175 337.15,-171.5 337.15,-178.5"/>
</g>
</g>
</svg>
